<svg xmlns="http://www.w3.org/2000/svg" viewBox="0 0 256 256" role="img" aria-label="Aarchi's Makeover favicon">
  <defs>
    <linearGradient id="g" x1="0" y1="0" x2="1" y2="1">
      <stop offset="0%" stop-color="#f29cb5"/>
      <stop offset="100%" stop-color="#bf6f8d"/>
    </linearGradient>
    <radialGradient id="r" cx="50%" cy="40%" r="60%">
      <stop offset="0%" stop-color="#fffdfb" stop-opacity="0.9"/>
      <stop offset="100%" stop-color="#fffdfb" stop-opacity="0"/>
    </radialGradient>
  </defs>
  <rect width="256" height="256" rx="64" fill="url(#g)"/>
  <circle cx="128" cy="110" r="86" fill="url(#r)"/>
  <path d="M128 56c-18-23-54-20-70 4-16 24-10 56 13 79l57 57 57-57c23-23 29-55 13-79-16-24-52-27-70-4z" fill="#fff9fb" fill-opacity="0.96"/>
  <path d="M171 61l9 18 20 3-14 14 3 20-18-9-18 9 3-20-14-14 20-3 9-18z" fill="#fff" fill-opacity="0.75"/>
</svg>